<svg width="721" height="721" viewBox="0 0 721 721" xmlns="http://www.w3.org/2000/svg" xmlns:xlink="http://www.w3.org/1999/xlink" fill="none" overflow="hidden"><path d="M721 719C323.895 719 2 397.105 2 0" stroke="#FDFBF6" stroke-width="3.34007" stroke-miterlimit="10" stroke-opacity="1" fill="none"/><path d="M721 679.691C345.63 679.691 41.3096 375.37 41.3096 0" stroke="#FDFBF6" stroke-width="3.34007" stroke-miterlimit="10" stroke-opacity="1" fill="none"/><path d="M720.999 640.382C367.328 640.382 80.6172 353.672 80.6172 0" stroke="#FDFBF6" stroke-width="3.34007" stroke-miterlimit="10" stroke-opacity="1" fill="none"/><path d="M720.999 601.037C389.062 601.037 119.962 331.937 119.962 0" stroke="#FDFBF6" stroke-width="3.34007" stroke-miterlimit="10" stroke-opacity="1" fill="none"/><path d="M721.001 561.729C410.763 561.729 159.272 310.238 159.272 0" stroke="#FDFBF6" stroke-width="3.34007" stroke-miterlimit="10" stroke-opacity="1" fill="none"/><path d="M720.999 522.42C432.495 522.42 198.579 288.54 198.579 0" stroke="#FDFBF6" stroke-width="3.34007" stroke-miterlimit="10" stroke-opacity="1" fill="none"/><path d="M721 483.075C454.195 483.075 237.925 266.805 237.925 0" stroke="#FDFBF6" stroke-width="3.34007" stroke-miterlimit="10" stroke-opacity="1" fill="none"/><path d="M721.001 443.766C475.93 443.766 277.234 245.07 277.234 0" stroke="#FDFBF6" stroke-width="3.34007" stroke-miterlimit="10" stroke-opacity="1" fill="none"/><path d="M720.999 404.458C497.628 404.458 316.542 223.372 316.542 0" stroke="#FDFBF6" stroke-width="3.34007" stroke-miterlimit="10" stroke-opacity="1" fill="none"/><path d="M721 365.113C519.363 365.113 355.887 201.637 355.887 0" stroke="#FDFBF6" stroke-width="3.34007" stroke-miterlimit="10" stroke-opacity="1" fill="none"/><path d="M720.999 325.804C541.061 325.804 395.195 179.938 395.195 0" stroke="#FDFBF6" stroke-width="3.34007" stroke-miterlimit="10" stroke-opacity="1" fill="none"/><path d="M720.999 286.495C562.796 286.495 434.504 158.239 434.504 0" stroke="#FDFBF6" stroke-width="3.34007" stroke-miterlimit="10" stroke-opacity="1" fill="none"/><path d="M721 247.151C584.495 247.151 473.85 136.505 473.85 0" stroke="#FDFBF6" stroke-width="3.34007" stroke-miterlimit="10" stroke-opacity="1" fill="none"/><path d="M721.001 207.842C606.231 207.842 513.159 114.806 513.159 0" stroke="#FDFBF6" stroke-width="3.34007" stroke-miterlimit="10" stroke-opacity="1" fill="none"/><path d="M721 168.533C627.928 168.533 552.467 93.0715 552.467 0" stroke="#FDFBF6" stroke-width="3.34007" stroke-miterlimit="10" stroke-opacity="1" fill="none"/><path d="M721 129.188C649.663 129.188 591.812 71.3369 591.812 0" stroke="#FDFBF6" stroke-width="3.34007" stroke-miterlimit="10" stroke-opacity="1" fill="none"/><path d="M721 89.8794C671.361 89.8794 631.12 49.6381 631.12 0" stroke="#FDFBF6" stroke-width="3.34007" stroke-miterlimit="10" stroke-opacity="1" fill="none"/></svg>